<?xml version="1.0" encoding="UTF-8" standalone="no"?>
<!-- Created with Inkscape (http://www.inkscape.org/) -->

<svg
   xmlns:dc="http://purl.org/dc/elements/1.1/"
   xmlns:cc="http://creativecommons.org/ns#"
   xmlns:rdf="http://www.w3.org/1999/02/22-rdf-syntax-ns#"
   xmlns:svg="http://www.w3.org/2000/svg"
   xmlns="http://www.w3.org/2000/svg"
   xmlns:sodipodi="http://sodipodi.sourceforge.net/DTD/sodipodi-0.dtd"
   xmlns:inkscape="http://www.inkscape.org/namespaces/inkscape"
   width="28.040125"
   height="28.040125"
   id="svg3067"
   version="1.1"
   inkscape:version="0.48.5 r10040"
   inkscape:export-filename="/tmp/weather-clear-night.png"
   inkscape:export-xdpi="1643.36"
   inkscape:export-ydpi="1643.36"
   sodipodi:docname="New document 2">
  <defs
     id="defs3069" />
  <sodipodi:namedview
     id="base"
     pagecolor="#ffffff"
     bordercolor="#666666"
     borderopacity="1.0"
     inkscape:pageopacity="0"
     inkscape:pageshadow="2"
     inkscape:zoom="17.231308"
     inkscape:cx="24.72218"
     inkscape:cy="12.955024"
     inkscape:document-units="px"
     inkscape:current-layer="g7598"
     showgrid="false"
     fit-margin-top="0"
     fit-margin-left="0"
     fit-margin-right="0"
     fit-margin-bottom="0"
     inkscape:window-width="1366"
     inkscape:window-height="728"
     inkscape:window-x="0"
     inkscape:window-y="40"
     inkscape:window-maximized="0" />
  <metadata
     id="metadata3072">
    <rdf:RDF>
      <cc:Work
         rdf:about="">
        <dc:format>image/svg+xml</dc:format>
        <dc:type
           rdf:resource="http://purl.org/dc/dcmitype/StillImage" />
        <dc:title></dc:title>
      </cc:Work>
    </rdf:RDF>
  </metadata>
  <g
     inkscape:label="Layer 1"
     inkscape:groupmode="layer"
     id="layer1"
     transform="translate(-20.122023,-309.53986)">
    <g
       id="g7598"
       transform="matrix(0.9987,0,0,0.9987,-295.32343,767.3706)"
       style="fill:#000000">
      <path
         id="path7600"
         style="opacity:0.10556;fill:#000000;fill-rule:evenodd"
         d="m 323.85,-456.08 c 0.04,0.18 -0.13,0.4 -0.28,0.6 -0.2,0.27 -0.31,0.45 -0.08,0.68 0.14,0.14 0.58,0.01 0.72,-0.04 0.32,-0.13 0.67,-0.23 0.99,-0.36 0.25,-0.1 0.43,-0.14 0.68,-0.2 0.29,-0.07 0.57,0.06 0.68,0.2 0.07,0.09 -0.46,0.49 -0.52,0.52 -0.24,0.12 -0.47,0.22 -0.72,0.28 -0.3,0.07 -0.57,0.18 -0.88,0.24 -0.3,0.06 -0.52,0.15 -0.79,0.32 -0.34,0.2 -0.63,0.5 -0.92,0.79 -0.27,0.28 -0.37,0.57 -0.28,0.92 0.08,0.34 0.21,0.46 0.52,0.52 0.34,0.07 0.51,-0.09 0.68,-0.32 0.21,-0.29 0.3,-0.66 0.56,-0.92 0.21,-0.21 0.36,-0.42 0.59,-0.59 0.24,-0.18 0.42,-0.28 0.72,-0.2 0.25,0.06 0.45,0.3 0.72,0.36 0.23,0.04 0.56,-0.27 0.76,-0.36 0.04,-0.03 0.08,-0.06 0.12,-0.08 0.21,-0.14 0.55,-0.08 0.8,-0.08 0.27,0 0.49,0.12 0.71,0.24 0.27,0.13 0.51,0.12 0.76,0.32 0.28,0.2 0.42,0.35 0.56,0.63 0.13,0.27 0.19,0.43 0.4,0.64 0.22,0.22 0.56,0.36 0.8,0.6 0.14,0.14 0.23,0.53 0.28,0.72 0.07,0.29 0.14,0.6 0,0.88 -0.15,0.3 -0.33,0.58 -0.48,0.87 -0.15,0.29 -0.55,0.54 -0.8,0.72 -0.34,0.26 -0.75,0.28 -1.08,0.6 -0.37,0.38 -0.41,0.6 -0.75,1.12 -0.26,0.38 0.04,0.56 0.35,0.48 0.33,-0.08 0.64,-0.16 0.96,-0.24 0.06,-0.02 0.11,-0.03 0.16,-0.04 0.4,-0.1 0.72,-0.42 1.12,-0.52 0.5,-0.12 1.54,0.65 1.99,0.92 0.36,0.21 -0.06,0.63 -0.24,0.72 -0.31,0.15 -0.63,0.2 -0.99,0.2 -0.24,0 -0.5,-0.08 -0.72,-0.12 -0.31,-0.07 -0.52,-0.07 -0.76,0.12 -0.27,0.2 -0.24,0.45 -0.08,0.71 0.16,0.26 0.41,0.45 0.48,0.72 0.09,0.35 -0.19,0.53 -0.44,0.68 -0.25,0.15 -0.67,-0.04 -0.96,-0.04 -0.36,0 -0.71,0.18 -0.99,0.4 -0.13,0.1 -0.25,0.61 -0.28,0.76 -0.02,0.05 -0.03,0.1 -0.04,0.16 -0.1,0.39 0.02,0.58 0.16,0.91 0.09,0.24 0.32,0.46 0.43,0.68 0.14,0.28 0.23,0.46 0.08,0.76 -0.12,0.26 -0.17,0.46 -0.23,0.72 -0.05,0.18 0.2,0.66 0.27,0.84 0.15,0.36 0.01,0.43 -0.23,0.68 -0.23,0.22 -0.56,0.27 -0.8,0.39 -0.23,0.12 -0.68,-0.02 -0.92,-0.07 -0.27,-0.07 -0.52,0.05 -0.72,0.15 -0.32,0.17 -0.32,0.32 -0.56,0 -0.25,-0.33 -0.46,-0.68 -0.56,-1.07 -0.01,-0.06 -0.02,-0.11 -0.04,-0.16 -0.06,-0.27 -0.04,-0.6 -0.04,-0.88 0,-0.29 0.08,-0.54 0.08,-0.84 0,-0.31 -0.75,0.28 -0.95,0.36 -0.1,0.04 -0.19,0.08 -0.28,0.12 -0.4,0.17 -0.36,0.54 -0.36,0.88 0,0.34 0.2,0.6 0.2,0.96 0,0.34 -0.41,0.44 -0.68,0.44 -0.39,0 -0.57,-0.46 -0.84,-0.72 -0.25,-0.26 -0.69,-0.54 -0.84,-0.84 -0.21,-0.43 -0.28,-0.67 0.16,-1 0.26,-0.19 0.61,-0.22 0.8,-0.48 0.2,-0.26 0.48,-0.64 0,-0.76 -0.33,-0.08 -0.46,-0.19 -0.84,-0.12 -0.06,0.02 -0.13,0.03 -0.2,0.04 -0.66,0.14 -0.65,0.08 -1.27,-0.23 -0.45,-0.23 -0.6,-0.57 -0.92,-0.88 -0.3,-0.3 -0.46,-0.69 -0.56,-1.08 -0.09,-0.35 -0.19,-0.7 -0.28,-1.04 -0.07,-0.28 -0.08,-0.62 -0.08,-0.92 0,-0.29 -0.08,-0.61 -0.08,-0.91 v -1 c 0,-0.34 0.04,-0.63 0.04,-0.96 0,-0.28 0.05,-0.61 0.12,-0.88 0.01,-0.02 0,-0.05 0,-0.08 0,-0.34 0.2,-0.69 0.32,-0.99 0.11,-0.27 0.27,-0.55 0.4,-0.8 0.13,-0.26 0.26,-0.48 0.44,-0.72 0.19,-0.26 0.39,-0.52 0.6,-0.76 0.34,-0.42 0.7,-0.81 1.11,-1.16 0.24,-0.2 0.36,-0.54 0.64,-0.75 0.35,-0.27 0.65,-0.54 1,-0.8 0.26,-0.2 0.5,-0.43 0.68,-0.72 0.14,-0.24 0.22,-0.46 0.44,-0.68 0.05,-0.05 0.23,-0.13 0.28,-0.16 z"
         inkscape:connector-curvature="0" />
      <path
         id="path7602"
         style="opacity:0.18888999;fill:#000000;fill-rule:evenodd"
         d="m 334.86,-450.97 c -0.39,0.09 -1.15,0.22 -1.68,0.12 -0.4,-0.08 -0.41,-0.3 -0.79,0.08 -0.03,0.03 -0.06,0.05 -0.08,0.08 -0.25,0.24 -0.28,0.28 -0.28,0.64 0,0.23 0,0.46 -0.04,0.68 -0.05,0.23 -0.02,0.59 0.04,0.79 0.07,0.32 0.12,0.54 0.28,0.84 0.12,0.24 0.17,0.43 0.39,0.6 0.29,0.22 0.69,0.27 1,0.4 0.22,0.09 0.59,0.04 0.84,0.04 0.31,0 0.36,0.03 0.36,0.4 0,0.31 -0.59,0.75 -0.76,1.04 -0.19,0.31 -0.12,0.56 0,0.91 0.09,0.27 0.15,0.53 0.2,0.8 0.06,0.29 0.13,0.49 0.36,0.72 0.24,0.24 0.69,-0.03 0.92,0.28 0.11,0.15 0.12,0.41 0.12,0.6 0,0.32 0.1,0.47 0.4,0.32 0.27,-0.14 0.47,-0.13 0.67,-0.4 0.2,-0.26 0.3,-0.59 0.44,-0.88 0.13,-0.26 0.35,-0.28 0.64,-0.28 0.27,0 0.48,0.07 0.76,0 0.41,-0.1 0.47,-0.23 0.76,-0.52 0.37,-0.36 0.32,-0.62 0.4,-1.08 0.03,-0.2 -0.04,-0.45 -0.08,-0.63 -0.02,-0.06 -0.03,-0.11 -0.04,-0.16 -0.06,-0.23 -0.55,-0.24 -0.72,-0.24 -0.39,0 -0.96,-0.19 -1.32,-0.28 -0.18,-0.05 -0.69,-0.65 -0.84,-0.8 -0.21,-0.21 -0.25,-0.37 -0.31,-0.64 -0.09,-0.33 -0.04,-0.67 -0.12,-1 -0.1,-0.37 0.01,-0.58 -0.28,-0.87 -0.21,-0.21 -0.35,-0.5 -0.4,-0.76 -0.05,-0.25 -0.29,-0.54 -0.48,-0.68 -0.14,-0.11 -0.16,-0.08 -0.36,-0.12 z"
         inkscape:connector-curvature="0" />
      <path
         id="path7604"
         style="opacity:0.18332998;fill:#000000;fill-rule:evenodd"
         d="m 341,-448.66 c -0.2,0.01 -0.41,0.26 -0.59,0.44 -0.18,0.18 -0.12,0.48 -0.12,0.72 0,0.26 0.05,0.54 0.12,0.8 0.05,0.22 0.25,0.49 0.4,0.64 0.22,0.22 0.5,0.35 0.79,0.4 0.39,0.06 0.61,0.11 0.76,-0.28 0.11,-0.27 0.16,-0.46 0.16,-0.76 0,-0.28 -0.01,-0.49 -0.08,-0.76 -0.08,-0.32 -0.19,-0.49 -0.48,-0.64 -0.2,-0.1 -0.42,-0.34 -0.6,-0.48 -0.1,-0.07 -0.23,-0.08 -0.36,-0.08 z"
         inkscape:connector-curvature="0" />
      <path
         id="path7606"
         style="opacity:0.47222003;fill:#000000;fill-rule:evenodd"
         d="m 328.36,-436.21 c 0.21,-0.14 0.84,-0.79 1.27,-1.11 0.09,-0.07 0.16,-0.14 0.24,-0.2 0.43,-0.36 0.81,-0.93 1.12,-1.4 0.49,-0.74 0.71,-1.41 0.88,-2.23 0.21,-1.05 0.26,-0.35 0.04,0.32 -0.04,0.1 -0.06,0.21 -0.08,0.31 -0.11,0.44 -0.16,0.9 -0.32,1.32 -0.23,0.57 -0.65,1.05 -0.8,1.64 -0.08,0.31 -0.19,0.69 -0.12,0.95 0.08,0.32 0.53,-0.37 0.84,-0.47 0.41,-0.14 0.52,-0.23 0.52,0.24 0,0.28 -0.15,0.67 -0.2,0.95 -0.1,0.49 1.29,0.08 1.59,0 1.01,-0.25 1.7,-0.59 2.52,-1.27 0.9,-0.75 1.64,-1.57 2.47,-2.4 0.67,-0.66 0.98,-1.08 0.56,0.04 -0.04,0.11 -0.08,0.21 -0.12,0.32 -0.04,0.11 -0.08,0.21 -0.12,0.32 -0.22,0.59 -0.62,1.24 -1.16,1.6 -0.83,0.55 -1.37,1.58 -2.27,2.03 -0.37,0.18 -0.75,0.26 -1.12,0.44 -0.37,0.19 0.72,0.32 0.92,0.36 2,0.44 -1.62,0.64 -2.08,0.64 -0.74,0 -1.12,-0.16 -1.71,0.2 -0.2,0.12 0.94,0.59 1,0.6 0.46,0.09 0.88,0.4 1.39,0.4 0.85,0 -1.77,0.26 -2.51,0.08 -0.62,-0.16 -1.21,-0.29 -1.84,-0.44 -0.31,-0.08 -0.63,-0.03 -0.91,0.04 -0.06,0.01 0.04,0.82 0.04,0.91 0,0.59 -0.16,1.06 -0.44,0.2 -0.16,-0.46 -0.44,-0.94 -0.44,-1.43 0,-0.31 -0.41,0.47 -0.6,0.72 -0.26,0.35 -0.78,0.85 -0.88,0.87 -0.01,0.01 0.26,-0.55 0.36,-0.95 0.08,-0.31 0.57,-1.12 0.24,-1.2 -0.31,-0.08 -0.73,-0.02 -1.04,-0.08 -0.46,-0.09 -0.96,-0.18 -1.39,-0.4 -0.85,-0.42 -2.17,-0.81 -3.08,-1.04 -0.08,-0.02 -1.45,-1.49 -0.16,-0.2 0.86,0.86 2.19,1.44 3.39,1.44 0.39,0 0.96,-0.15 1.32,-0.24 0.22,-0.05 0.52,-0.38 0.76,-0.48 0.26,-0.1 -0.42,-0.38 -0.6,-0.6 -0.07,-0.08 -0.13,-0.16 -0.2,-0.24 -0.71,-0.86 -0.96,-2.04 -1.79,-2.87 -0.14,-0.13 -2.08,-2.4 -1.16,-1.64 0.95,0.8 1.83,1.5 2.63,2.44 0.41,0.48 0.77,1.1 1.16,1.59 0.39,0.5 0.31,-0.1 0.2,-0.44 -0.24,-0.72 -0.12,-1.72 -0.12,-2.47 0,-1 0.52,1.03 0.56,1.2 0.12,0.49 0.38,1.14 0.76,0.64 0.39,-0.52 0.44,-0.62 0.44,0.04 v 0.16 c 0,0.24 -0.02,0.53 0.04,0.79 z"
         inkscape:connector-curvature="0" />
      <path
         id="path7608"
         style="opacity:0.11667002;fill:#000000;fill-rule:evenodd"
         d="m 340.05,-444.98 c 0.08,0.08 0.16,0.37 0.16,0.63 0,0.11 -0.66,0.62 -0.76,0.72 -0.19,0.19 -0.23,0.52 -0.28,0.76 -0.06,0.31 -0.14,0.53 -0.08,0.84 0.05,0.26 0.16,0.52 0.28,0.76 0.14,0.28 0.35,0.43 0.6,0.67 0.27,0.28 0.61,0.28 0.95,0.36 0.44,0.11 -0.25,0.53 -0.35,0.6 -0.27,0.2 -0.53,0.26 -0.68,0.56 -0.18,0.35 0.18,0.47 0.4,0.56 0.24,0.1 0.6,-0.33 0.71,-0.48 0.16,-0.2 0.4,-0.43 0.4,-0.68 0,-0.24 0.12,-0.51 0.12,-0.8 0,-0.27 0.06,-0.56 0.12,-0.79 0.09,-0.36 0.22,-0.5 0.44,-0.72 0.18,-0.18 0.18,-0.62 0.12,-0.84 -0.06,-0.25 -0.22,-0.48 -0.28,-0.72 -0.06,-0.24 -0.36,-0.39 -0.56,-0.44 -0.23,-0.06 -0.56,-0.48 -0.71,-0.64 -0.21,-0.2 -0.3,-0.35 -0.6,-0.35 z"
         inkscape:connector-curvature="0" />
      <path
         id="path7610"
         style="fill:#000000;stroke:#000000;stroke-width:1.00129998px"
         d="m 322.69,-446.02 c -0.01,-0.01 0.03,0 0,0 z"
         inkscape:connector-curvature="0" />
      <path
         id="path7612"
         style="opacity:0.2;fill:#000000;fill-rule:evenodd"
         d="m 327.6,-455.68 c 0.17,-0.04 0.57,-0.17 0.84,-0.24 0.34,-0.08 0.69,0.12 1.03,0.12 0.04,0 0.26,0.44 0.64,0.44 h 0.16 c 0.24,0 0.51,0.19 0.68,0.36 0.16,0.16 0.01,0.54 -0.08,0.64 -0.25,0.25 -0.48,0.07 -0.68,-0.12 -0.21,-0.21 -0.32,-0.29 -0.6,-0.36 -0.27,-0.07 -0.57,-0.03 -0.84,0.04 -0.32,0.08 -0.54,0.16 -0.91,0.16 -0.13,0 -0.52,-0.55 -0.56,-0.64 -0.08,-0.16 0.22,-0.37 0.32,-0.4 z"
         inkscape:connector-curvature="0" />
      <path
         id="path7614"
         style="opacity:0.28889034;fill:#000000;fill-rule:evenodd"
         d="m 332.43,-455 c 0.19,0.05 0.64,0.04 0.95,-0.04 0.35,-0.09 0.91,-0.13 1.28,-0.04 0.22,0.06 1.59,0.32 0.96,0.64 -0.31,0.15 -0.64,0.19 -0.92,0.36 -0.33,0.2 0.4,0.28 0.56,0.28 0.42,0 0.18,0.51 0.08,0.67 -0.16,0.27 -0.05,0.67 0,0.92 0.06,0.29 0.55,0.24 0.8,0.24 0.34,0 0.63,0.05 0.83,0.32 0.19,0.24 0.44,0.49 0.32,0.72 -0.12,0.24 -0.72,0.28 -0.91,0.28 -0.16,0 -0.75,-0.76 -0.84,-0.84 -0.23,-0.2 -0.5,-0.01 -0.72,0.04 -0.39,0.1 -0.68,-0.4 -0.92,-0.6 -0.26,-0.22 -0.42,-0.53 -0.56,-0.8 -0.17,-0.33 0.11,-0.47 -0.4,-0.47 -0.31,0 -0.48,-0.07 -0.71,-0.24 -0.32,-0.24 -0.56,-0.15 -0.56,-0.6 0,-0.4 0.02,-0.52 0.36,-0.72 0.1,-0.07 0.25,-0.03 0.4,-0.12 z"
         inkscape:connector-curvature="0" />
      <path
         id="path7618"
         sodipodi:rx="31.864613"
         sodipodi:ry="31.864613"
         style="opacity:0.61667002;fill:#000000"
         sodipodi:type="arc"
         d="m -824.73115,649.36853 c 0,17.59834 -14.26627,31.86461 -31.86461,31.86461 -17.59834,0 -31.86462,-14.26627 -31.86462,-31.86461 0,-17.59834 14.26628,-31.86461 31.86462,-31.86461 17.59834,0 31.86461,14.26627 31.86461,31.86461 z"
         transform="matrix(0.021289,0,0,0.021289,345.15,-457.77)"
         sodipodi:cy="649.36853"
         sodipodi:cx="-856.59576" />
      <path
         id="path7620"
         sodipodi:rx="31.864613"
         sodipodi:ry="31.864613"
         style="opacity:0.54444;fill:#000000"
         sodipodi:type="arc"
         d="m -824.73115,649.36853 c 0,17.59834 -14.26627,31.86461 -31.86461,31.86461 -17.59834,0 -31.86462,-14.26627 -31.86462,-31.86461 0,-17.59834 14.26628,-31.86461 31.86462,-31.86461 17.59834,0 31.86461,14.26627 31.86461,31.86461 z"
         transform="matrix(0.011271,0,0,0.011271,330.39,-456.65)"
         sodipodi:cy="649.36853"
         sodipodi:cx="-856.59576" />
      <path
         id="path7622"
         sodipodi:rx="31.864613"
         sodipodi:ry="31.864613"
         style="opacity:0.54444;fill:#000000"
         sodipodi:type="arc"
         d="m -824.73115,649.36853 c 0,17.59834 -14.26627,31.86461 -31.86461,31.86461 -17.59834,0 -31.86462,-14.26627 -31.86462,-31.86461 0,-17.59834 14.26628,-31.86461 31.86462,-31.86461 17.59834,0 31.86461,14.26627 31.86461,31.86461 z"
         transform="matrix(0.021289,0,0,0.021289,354.93,-458.53)"
         sodipodi:cy="649.36853"
         sodipodi:cx="-856.59576" />
      <path
         id="path7624"
         sodipodi:rx="31.864613"
         sodipodi:ry="31.864613"
         style="opacity:0.56667002;fill:#000000"
         sodipodi:type="arc"
         d="m -824.73115,649.36853 c 0,17.59834 -14.26627,31.86461 -31.86461,31.86461 -17.59834,0 -31.86462,-14.26627 -31.86462,-31.86461 0,-17.59834 14.26628,-31.86461 31.86462,-31.86461 17.59834,0 31.86461,14.26627 31.86461,31.86461 z"
         transform="matrix(0.021289,0,0,0.021289,349.82,-448.31)"
         sodipodi:cy="649.36853"
         sodipodi:cx="-856.59576" />
      <path
         id="path7626"
         sodipodi:rx="31.864613"
         sodipodi:ry="31.864613"
         style="opacity:0.61667002;fill:#000000"
         sodipodi:type="arc"
         d="m -824.73115,649.36853 c 0,17.59834 -14.26627,31.86461 -31.86461,31.86461 -17.59834,0 -31.86462,-14.26627 -31.86462,-31.86461 0,-17.59834 14.26628,-31.86461 31.86462,-31.86461 17.59834,0 31.86461,14.26627 31.86461,31.86461 z"
         transform="matrix(0.013775,0,0,0.013775,347.86,-453.49)"
         sodipodi:cy="649.36853"
         sodipodi:cx="-856.59576" />
      <path
         id="path7628"
         sodipodi:rx="31.864613"
         sodipodi:ry="31.864613"
         style="opacity:0.61667002;fill:#000000"
         sodipodi:type="arc"
         d="m -824.73115,649.36853 c 0,17.59834 -14.26627,31.86461 -31.86461,31.86461 -17.59834,0 -31.86462,-14.26627 -31.86462,-31.86461 0,-17.59834 14.26628,-31.86461 31.86462,-31.86461 17.59834,0 31.86461,14.26627 31.86461,31.86461 z"
         transform="matrix(0.011271,0,0,0.011271,337.49,-441.33)"
         sodipodi:cy="649.36853"
         sodipodi:cx="-856.59576" />
      <path
         id="path7630"
         sodipodi:rx="31.864613"
         sodipodi:ry="31.864613"
         style="opacity:0.61667002;fill:#000000"
         sodipodi:type="arc"
         d="m -824.73115,649.36853 c 0,17.59834 -14.26627,31.86461 -31.86461,31.86461 -17.59834,0 -31.86462,-14.26627 -31.86462,-31.86461 0,-17.59834 14.26628,-31.86461 31.86462,-31.86461 17.59834,0 31.86461,14.26627 31.86461,31.86461 z"
         transform="matrix(0.013775,0,0,0.013775,346.18,-447.59)"
         sodipodi:cy="649.36853"
         sodipodi:cx="-856.59576" />
      <path
         id="path7632"
         sodipodi:rx="31.864613"
         sodipodi:ry="31.864613"
         style="opacity:0.61667002;fill:#000000"
         sodipodi:type="arc"
         d="m -824.73115,649.36853 c 0,17.59834 -14.26627,31.86461 -31.86461,31.86461 -17.59834,0 -31.86462,-14.26627 -31.86462,-31.86461 0,-17.59834 14.26628,-31.86461 31.86462,-31.86461 17.59834,0 31.86461,14.26627 31.86461,31.86461 z"
         transform="matrix(0.013775,0,0,0.013775,351.37,-459)"
         sodipodi:cy="649.36853"
         sodipodi:cx="-856.59576" />
      <path
         id="path7634"
         sodipodi:rx="31.864613"
         sodipodi:ry="31.864613"
         style="opacity:0.61667002;fill:#000000"
         sodipodi:type="arc"
         d="m -824.73115,649.36853 c 0,17.59834 -14.26627,31.86461 -31.86461,31.86461 -17.59834,0 -31.86462,-14.26627 -31.86462,-31.86461 0,-17.59834 14.26628,-31.86461 31.86462,-31.86461 17.59834,0 31.86461,14.26627 31.86461,31.86461 z"
         transform="matrix(0.013775,0,0,0.013775,348.34,-458.2)"
         sodipodi:cy="649.36853"
         sodipodi:cx="-856.59576" />
      <path
         id="path7636"
         sodipodi:rx="31.864613"
         sodipodi:ry="31.864613"
         style="opacity:0.61667002;fill:#000000"
         sodipodi:type="arc"
         d="m -824.73115,649.36853 c 0,17.59834 -14.26627,31.86461 -31.86461,31.86461 -17.59834,0 -31.86462,-14.26627 -31.86462,-31.86461 0,-17.59834 14.26628,-31.86461 31.86462,-31.86461 17.59834,0 31.86461,14.26627 31.86461,31.86461 z"
         transform="matrix(0.013775,0,0,0.013775,349.53,-462.67)"
         sodipodi:cy="649.36853"
         sodipodi:cx="-856.59576" />
      <path
         id="path7638"
         sodipodi:rx="31.864613"
         sodipodi:ry="31.864613"
         style="opacity:0.61667002;fill:#000000"
         sodipodi:type="arc"
         d="m -824.73115,649.36853 c 0,17.59834 -14.26627,31.86461 -31.86461,31.86461 -17.59834,0 -31.86462,-14.26627 -31.86462,-31.86461 0,-17.59834 14.26628,-31.86461 31.86462,-31.86461 17.59834,0 31.86461,14.26627 31.86461,31.86461 z"
         transform="matrix(0.013775,0,0,0.013775,340.67,-449.42)"
         sodipodi:cy="649.36853"
         sodipodi:cx="-856.59576" />
      <g
         id="g7642"
         style="opacity:0.31667002;fill:#000000"
         transform="translate(461.7,-517.21)">
        <path
           id="path7644"
           sodipodi:rx="1.767767"
           sodipodi:ry="1.5909903"
           style="fill:#000000"
           sodipodi:type="arc"
           d="m -125.68823,68.682877 c 0,0.878679 -0.79146,1.59099 -1.76777,1.59099 -0.97631,0 -1.76777,-0.712311 -1.76777,-1.59099 0,-0.87868 0.79146,-1.590991 1.76777,-1.590991 0.97631,0 1.76777,0.712311 1.76777,1.590991 z"
           transform="matrix(1,0,0,1.0556,-0.17678,-4.0809)"
           sodipodi:cy="68.682877"
           sodipodi:cx="-127.456" />
        <path
           id="path7646"
           sodipodi:rx="1.767767"
           sodipodi:ry="1.5909903"
           style="fill:#000000"
           sodipodi:type="arc"
           d="m -125.68823,68.682877 c 0,0.878679 -0.79146,1.59099 -1.76777,1.59099 -0.97631,0 -1.76777,-0.712311 -1.76777,-1.59099 0,-0.87868 0.79146,-1.590991 1.76777,-1.590991 0.97631,0 1.76777,0.712311 1.76777,1.590991 z"
           transform="matrix(1,0,0,1.0556,1.7678,-0.10344)"
           sodipodi:cy="68.682877"
           sodipodi:cx="-127.456" />
        <path
           id="path7648"
           sodipodi:rx="1.767767"
           sodipodi:ry="1.5909903"
           style="fill:#000000"
           sodipodi:type="arc"
           d="m -125.68823,68.682877 c 0,0.878679 -0.79146,1.59099 -1.76777,1.59099 -0.97631,0 -1.76777,-0.712311 -1.76777,-1.59099 0,-0.87868 0.79146,-1.590991 1.76777,-1.590991 0.97631,0 1.76777,0.712311 1.76777,1.590991 z"
           transform="matrix(0.65,0,0,0.68611,-40.279,25.214)"
           sodipodi:cy="68.682877"
           sodipodi:cx="-127.456" />
        <path
           id="path7651"
           sodipodi:rx="1.767767"
           sodipodi:ry="1.5909903"
           style="fill:#000000"
           sodipodi:type="arc"
           d="m -125.68823,68.682877 c 0,0.878679 -0.79146,1.59099 -1.76777,1.59099 -0.97631,0 -1.76777,-0.712311 -1.76777,-1.59099 0,-0.87868 0.79146,-1.590991 1.76777,-1.590991 0.97631,0 1.76777,0.712311 1.76777,1.590991 z"
           transform="matrix(1.55,0,0,1.6361,63.03,-45.537)"
           sodipodi:cy="68.682877"
           sodipodi:cx="-127.456" />
        <path
           id="path7653"
           sodipodi:rx="1.767767"
           sodipodi:ry="1.5909903"
           style="fill:#000000"
           sodipodi:type="arc"
           d="m -125.68823,68.682877 c 0,0.878679 -0.79146,1.59099 -1.76777,1.59099 -0.97631,0 -1.76777,-0.712311 -1.76777,-1.59099 0,-0.87868 0.79146,-1.590991 1.76777,-1.590991 0.97631,0 1.76777,0.712311 1.76777,1.590991 z"
           transform="matrix(1.8,0,0,1.9,89.148,-57.506)"
           sodipodi:cy="68.682877"
           sodipodi:cx="-127.456" />
        <path
           id="path7655"
           sodipodi:rx="1.767767"
           sodipodi:ry="1.5909903"
           style="fill:#000000"
           sodipodi:type="arc"
           d="m -125.68823,68.682877 c 0,0.878679 -0.79146,1.59099 -1.76777,1.59099 -0.97631,0 -1.76777,-0.712311 -1.76777,-1.59099 0,-0.87868 0.79146,-1.590991 1.76777,-1.590991 0.97631,0 1.76777,0.712311 1.76777,1.590991 z"
           transform="matrix(1.4,0,0,1.4778,42.32,-25.709)"
           sodipodi:cy="68.682877"
           sodipodi:cx="-127.456" />
        <path
           id="path7657"
           sodipodi:rx="1.767767"
           sodipodi:ry="1.5909903"
           style="fill:#000000"
           sodipodi:type="arc"
           d="m -125.68823,68.682877 c 0,0.878679 -0.79146,1.59099 -1.76777,1.59099 -0.97631,0 -1.76777,-0.712311 -1.76777,-1.59099 0,-0.87868 0.79146,-1.590991 1.76777,-1.590991 0.97631,0 1.76777,0.712311 1.76777,1.590991 z"
           transform="matrix(1.4,0,0,1.4778,40.729,-32.285)"
           sodipodi:cy="68.682877"
           sodipodi:cx="-127.456" />
      </g>
      <path
         id="path7659"
         sodipodi:rx="0.66291261"
         sodipodi:ry="0.66291261"
         style="fill:#000000"
         sodipodi:type="arc"
         d="m -161.83907,69.52256 c 0,0.366117 -0.2968,0.662913 -0.66291,0.662913 -0.36612,0 -0.66292,-0.296796 -0.66292,-0.662913 0,-0.366116 0.2968,-0.662912 0.66292,-0.662912 0.36611,0 0.66291,0.296796 0.66291,0.662912 z"
         transform="translate(490.91,-504.26)"
         sodipodi:cy="69.52256"
         sodipodi:cx="-162.50198" />
    </g>
  </g>
</svg>
